<svg xmlns="http://www.w3.org/2000/svg" version="1.1" xmlns:xlink="http://www.w3.org/1999/xlink" xmlns:svgjs="http://svgjs.com/svgjs" width="320" height="320"><svg width="320" height="320" viewBox="0 0 320 320" fill="none" xmlns="http://www.w3.org/2000/svg">
<rect width="320" height="320" fill="#FF2F2F"></rect>
<rect x="36.6066" y="160" width="175" height="175" transform="rotate(-45 36.6066 160)" stroke="white" stroke-width="15"></rect>
<rect x="79.6066" y="160" width="75" height="75" transform="rotate(-45 79.6066 160)" stroke="white" stroke-width="15"></rect>
<rect x="133.607" y="160" width="75.5097" height="75.5097" transform="rotate(-45 133.607 160)" stroke="white" stroke-width="15"></rect>
<path d="M160 320L21.4359 160.25L298.564 160.25L160 320Z" fill="#FF2F2F"></path>
<rect x="132" y="164" width="8" height="36" stroke="white" stroke-width="8"></rect>
<rect x="179" y="164" width="8" height="36" stroke="white" stroke-width="8"></rect>
<rect x="233.75" y="163.75" width="7.5" height="36.5" stroke="white" stroke-width="7.5"></rect>
<rect x="276.75" y="163.75" width="7.5" height="36.5" stroke="white" stroke-width="7.5"></rect>
<rect x="78.75" y="163.75" width="7.5" height="36.5" stroke="white" stroke-width="7.5"></rect>
<rect x="35.75" y="163.75" width="7.5" height="36.5" stroke="white" stroke-width="7.5"></rect>
<rect x="33.75" y="192.75" width="252.5" height="7.5" stroke="white" stroke-width="7.5"></rect>
<path d="M19.196 245.816L18.888 242.736C19.6907 242.736 20.2693 242.563 20.624 242.218C20.9787 241.882 21.156 241.252 21.156 240.328V221.4H24.74V241.112C24.74 242.82 24.334 244.029 23.522 244.738C22.71 245.457 21.604 245.816 20.204 245.816H19.196ZM37.5423 241.392C35.6757 241.392 34.0143 240.972 32.5583 240.132C31.1023 239.283 29.959 238.097 29.1283 236.576C28.2977 235.045 27.8823 233.253 27.8823 231.2C27.8823 229.147 28.2977 227.359 29.1283 225.838C29.959 224.307 31.1023 223.122 32.5583 222.282C34.0143 221.433 35.6757 221.008 37.5423 221.008C39.409 221.008 41.0703 221.433 42.5263 222.282C43.9823 223.122 45.1257 224.307 45.9563 225.838C46.787 227.359 47.2023 229.147 47.2023 231.2C47.2023 233.253 46.787 235.045 45.9563 236.576C45.1257 238.097 43.9823 239.283 42.5263 240.132C41.0703 240.972 39.409 241.392 37.5423 241.392ZM37.5423 237.92C38.849 237.92 39.941 237.631 40.8183 237.052C41.6957 236.473 42.3537 235.68 42.7923 234.672C43.231 233.655 43.4503 232.497 43.4503 231.2C43.4503 229.903 43.231 228.75 42.7923 227.742C42.3537 226.725 41.6957 225.927 40.8183 225.348C39.941 224.769 38.849 224.48 37.5423 224.48C36.2357 224.48 35.1437 224.769 34.2663 225.348C33.389 225.927 32.731 226.725 32.2923 227.742C31.8537 228.75 31.6343 229.903 31.6343 231.2C31.6343 232.497 31.8537 233.655 32.2923 234.672C32.731 235.68 33.389 236.473 34.2663 237.052C35.1437 237.631 36.2357 237.92 37.5423 237.92ZM61.4478 241L54.1958 230.64L61.4478 221.4H65.6478L58.3398 230.64L65.6478 241H61.4478ZM50.3318 241V221.4H53.9158V241H50.3318ZM67.8865 241V221.4H80.4305V224.872H71.5545V229.044H78.4425V232.516H71.5545V237.528H80.7105V241H67.8865ZM83.8005 241V221.4H87.3845V237.808H95.4485V241H83.8005ZM108.497 236.352H100.293V233.216H108.497V236.352ZM103.933 224.9H104.857L99.2005 241H95.7285L102.701 221.4H106.089L113.061 241H109.589L103.933 224.9ZM115.301 241V221.4H118.829L127.201 234.056V221.4H130.785V241H127.845L118.885 227.56V241H115.301ZM141.386 241V221.4H144.97V237.808H153.034V241H141.386ZM163.488 241.392C161.621 241.392 159.96 240.972 158.504 240.132C157.048 239.283 155.904 238.097 155.074 236.576C154.243 235.045 153.828 233.253 153.828 231.2C153.828 229.147 154.243 227.359 155.074 225.838C155.904 224.307 157.048 223.122 158.504 222.282C159.96 221.433 161.621 221.008 163.488 221.008C165.354 221.008 167.016 221.433 168.472 222.282C169.928 223.122 171.071 224.307 171.902 225.838C172.732 227.359 173.148 229.147 173.148 231.2C173.148 233.253 172.732 235.045 171.902 236.576C171.071 238.097 169.928 239.283 168.472 240.132C167.016 240.972 165.354 241.392 163.488 241.392ZM163.488 237.92C164.794 237.92 165.886 237.631 166.764 237.052C167.641 236.473 168.299 235.68 168.738 234.672C169.176 233.655 169.396 232.497 169.396 231.2C169.396 229.903 169.176 228.75 168.738 227.742C168.299 226.725 167.641 225.927 166.764 225.348C165.886 224.769 164.794 224.48 163.488 224.48C162.181 224.48 161.089 224.769 160.212 225.348C159.334 225.927 158.676 226.725 158.238 227.742C157.799 228.75 157.58 229.903 157.58 231.2C157.58 232.497 157.799 233.655 158.238 234.672C158.676 235.68 159.334 236.473 160.212 237.052C161.089 237.631 162.181 237.92 163.488 237.92ZM175.189 241L177.905 221.4H180.845L185.633 230.332L190.393 221.4H193.333L196.049 241H192.325L190.449 226.272L191.429 226.468L185.633 236.884L179.809 226.496L180.789 226.3L178.913 241H175.189ZM210.133 236.352H201.929V233.216H210.133V236.352ZM205.569 224.9H206.493L200.837 241H197.365L204.337 221.4H207.725L214.697 241H211.225L205.569 224.9ZM216.013 241L218.729 221.4H221.669L226.457 230.332L231.217 221.4H234.157L236.873 241H233.149L231.273 226.272L232.253 226.468L226.457 236.884L220.633 226.496L221.613 226.3L219.737 241H216.013ZM248.581 241.392C246.715 241.392 245.053 240.972 243.597 240.132C242.141 239.283 240.998 238.097 240.167 236.576C239.337 235.045 238.921 233.253 238.921 231.2C238.921 229.147 239.337 227.359 240.167 225.838C240.998 224.307 242.141 223.122 243.597 222.282C245.053 221.433 246.715 221.008 248.581 221.008C250.448 221.008 252.109 221.433 253.565 222.282C255.021 223.122 256.165 224.307 256.995 225.838C257.826 227.359 258.241 229.147 258.241 231.2C258.241 233.253 257.826 235.045 256.995 236.576C256.165 238.097 255.021 239.283 253.565 240.132C252.109 240.972 250.448 241.392 248.581 241.392ZM248.581 237.92C249.888 237.92 250.98 237.631 251.857 237.052C252.735 236.473 253.393 235.68 253.831 234.672C254.27 233.655 254.489 232.497 254.489 231.2C254.489 229.903 254.27 228.75 253.831 227.742C253.393 226.725 252.735 225.927 251.857 225.348C250.98 224.769 249.888 224.48 248.581 224.48C247.275 224.48 246.183 224.769 245.305 225.348C244.428 225.927 243.77 226.725 243.331 227.742C242.893 228.75 242.673 229.903 242.673 231.2C242.673 232.497 242.893 233.655 243.331 234.672C243.77 235.68 244.428 236.473 245.305 237.052C246.183 237.631 247.275 237.92 248.581 237.92ZM244.409 219.076V216.668H247.097V219.076H244.409ZM250.065 219.076V216.668H252.753V219.076H250.065ZM272.487 241L265.235 230.64L272.487 221.4H276.687L269.379 230.64L276.687 241H272.487ZM261.371 241V221.4H264.955V241H261.371ZM278.926 241V221.4H282.51V241H278.926ZM290.636 241V224.872H285.092V221.4H299.764V224.872H294.22V241H290.636Z" fill="white"></path>
</svg><style>@media (prefers-color-scheme: light) { :root { filter: none; } }
</style></svg>